<?xml version="1.0" encoding="UTF-8"?>
<svg width="100px" height="100px" viewBox="0 0 100 100" version="1.1" xmlns="http://www.w3.org/2000/svg" xmlns:xlink="http://www.w3.org/1999/xlink">
    <!-- Generator: Sketch 57.1 (83088) - https://sketch.com -->
    <title>github</title>
    <desc>Created with Sketch.</desc>
    <g id="github" stroke="none" stroke-width="1" fill="none" fill-rule="evenodd">
        <g fill="#C0C0C0" id="Combined-Shape">
            <path d="M50,0 C77.6142375,0 100,22.3857625 100,50 C100,77.6142375 77.6142375,100 50,100 C22.3857625,100 0,77.6142375 0,50 C0,22.3857625 22.3857625,0 50,0 Z M49.9974217,22 C34.537647,22 22,34.8535636 22,50.7103456 C22,63.3929513 30.0221001,74.1544842 41.1485313,77.9508061 C42.5494337,78.215174 43.0599466,77.3286605 43.0599466,76.5672812 L43.0593758,76.3538272 C43.0556564,75.5521961 43.0346319,73.8627182 43.0221308,71.6852887 C35.2338009,73.4195416 33.5905338,67.8360932 33.5905338,67.8360932 C32.3168299,64.5191583 30.4810461,63.6361697 30.4810461,63.6361697 C27.9387949,61.8543306 30.6735627,61.8913421 30.6735627,61.8913421 C33.4839621,62.0940241 34.9622149,64.8504993 34.9622149,64.8504993 C37.4614936,69.2372427 41.5163756,67.9700396 43.1115136,67.235097 C43.3659106,65.3792349 44.0895669,64.1155567 44.8888548,63.3964762 C38.6715983,62.6721084 32.1346266,60.2099627 32.1346266,49.2087364 C32.1346266,46.073334 33.2261273,43.5107286 35.0172197,41.5032956 C34.7301636,40.7771653 33.7692992,37.8585445 35.2922435,33.9071268 C35.2922435,33.9071268 37.6436969,33.1334103 42.9911906,36.8486594 C45.2257589,36.2124142 47.6201848,35.8934103 50.0008594,35.8828356 C52.3798152,35.8934103 54.7742411,36.2124142 57.0122472,36.8486594 C62.3563031,33.1334103 64.7043187,33.9071268 64.7043187,33.9071268 C66.2307008,37.8585445 65.2698364,40.7771653 64.9827803,41.5032956 C66.7773105,43.5107286 67.8602167,46.073334 67.8602167,49.2087364 C67.8602167,60.2363995 61.3146505,62.6632961 55.0767672,63.3753268 C56.082323,64.2618402 56.9761503,66.0137177 56.9761503,68.6908825 C56.9761503,72.5295033 56.9434912,75.6261317 56.9434912,76.5672812 C56.9434912,77.3357103 57.4471285,78.2275111 58.8686577,77.9472812 C69.9847755,74.1439095 78,63.3911889 78,50.7103456 C78,34.8535636 65.462353,22 49.9974217,22 Z"></path>
        </g>
    </g>
</svg>