<?xml version="1.0" encoding="UTF-8"?>
<svg width="100px" height="100px" viewBox="0 0 100 100" version="1.1" xmlns="http://www.w3.org/2000/svg" xmlns:xlink="http://www.w3.org/1999/xlink">
    <!-- Generator: Sketch 57.1 (83088) - https://sketch.com -->
    <title>linkedin</title>
    <desc>Created with Sketch.</desc>
    <g id="linkedin" stroke="none" stroke-width="1" fill="none" fill-rule="evenodd">
        <g fill="#C0C0C0" id="Combined-Shape">
            <path d="M50,0 C77.6142375,0 100,22.3857625 100,50 C100,77.6142375 77.6142375,100 50,100 C22.3857625,100 0,77.6142375 0,50 C0,22.3857625 22.3857625,0 50,0 Z M61.4839006,41.551124 C56.4087488,41.551124 53.2284273,44.5750242 52.6404687,46.6937915 L52.6404687,46.6937915 L52.6404687,41.8479843 L42.687933,41.8479843 C42.8162148,44.4207732 42.687933,72.7272727 42.687933,72.7272727 L42.687933,72.7272727 L52.6404687,72.7272727 L52.6404687,56.0186964 C52.6404687,55.0873701 52.6003806,54.1589541 52.8569443,53.4953841 C53.5411143,51.6356419 55.0110109,49.7118709 57.6541521,49.7118709 C61.1097451,49.7118709 62.6811982,52.5640578 62.6811982,56.7462951 L62.6811982,56.7462951 L62.6811982,72.7272727 L72.7272727,72.7272727 L72.7272727,55.5559436 C72.7272727,45.9952968 67.7804028,41.551124 61.4839006,41.551124 Z M37.2787138,41.8479843 L28.4192466,41.8479843 L28.4192466,72.7243623 L37.2787138,72.7243623 L37.2787138,41.8479843 Z M32.684619,27.2727273 C29.4134311,27.2727273 27.2727273,29.5864911 27.2727273,32.6365848 C27.2727273,35.6255603 29.3519627,37.9858904 32.5590097,37.9858904 L32.5590097,37.9858904 L32.6231506,37.9858904 C35.9531344,37.9858904 38.0270247,35.6168291 38.0270247,32.6278536 C37.9628838,29.5806703 35.9531344,27.2727273 32.684619,27.2727273 Z"></path>
        </g>
    </g>
</svg>